{"title":"Sunlight Jr 2013 DVD-R (RLG)","uid":9656507,"size":4491780096,"categoryP":"video","categoryS":"movies_dvdr","magnet":"?xt=urn:btih:6a84c67aecf01e3fb964bf4385b976cf69f3ee6b&amp;dn=Sunlight+Jr+2013+DVD-R+%28RLG%29&amp;tr=udp%3A%2F%2Ftracker.openbittorrent.com%3A80&amp;tr=udp%3A%2F%2Fopen.demonii.com%3A1337&amp;tr=udp%3A%2F%2Ftracker.coppersurfer.tk%3A6969&amp;tr=udp%3A%2F%2Fexodus.desync.com%3A6969","seeders":1,"leechers":0,"uploader":"RedLegsGreaves","files":-1,"time":1393195520,"description":" &lt;a href=&quot;http://www.imdb.com/title/tt1517249/?ref_=nv_sr_1&quot; rel=&quot;nofollow&quot; target=&quot;_NEW&quot;&gt;http://www.imdb.com/title/tt1517249/?ref_=nv_sr_1&lt;/a&gt;\nA Florida couple deals with an unexpected pregnancy while holding minimum wage jobs.\n\nLanguages: English\nSubtitles: None\n\nFor Newer Users.\nSimply Drag downloaded folder to your Media Player. This is a NTSC DVD.\nThis is ripped so you would have best quality, menu, bonus/special feature, language options etc.\nNote DVDs may not have have all* features.\n\n\nScreenshots\n\n\nVideo\nID : 224 (0xE0)\nFormat : MPEG Video\nDuration : 22mn 31s\nBit rate mode : Variable\nBit rate : 6 035 Kbps\nMaximum bit rate : 9 800 Kbps\nWidth : 720 pixels\nHeight : 480 pixels\nDisplay aspect ratio : 16:9\nFrame rate : 23.976 fps\nStandard : Component\nColor space : YUV\nChroma subsampling : 4:2:0\nBit depth : 8 bits\nScan type : Progressive\nScan order : 2:3 Pulldown\nCompression mode : Lossy\nBits/(Pixel*Frame) : 0.728\nStream size : 973 MiB (95%)\nColor primaries : BT.601 NTSC\nTransfer characteristics : BT.601\nMatrix coefficients : BT.601\n\nAudio\nID : 189 (0xBD)-128 (0x80)\nFormat : AC-3\nFormat/Info : Audio Coding 3\nMode extension : CM (complete main)\nFormat settings, Endianness : Big\nMuxing mode : DVD-Video\nDuration : 22mn 31s\nBit rate mode : Constant\nBit rate : 192 Kbps\nChannel(s) : 2 channels\nChannel positions : Front: L R\nSampling rate : 48.0 KHz\nBit depth : 16 bits\nCompression mode : Lossy\nStream size : 30.9 MiB (3%)","torrent":{"xt":"urn:btih:6a84c67aecf01e3fb964bf4385b976cf69f3ee6b","amp;dn":"Sunlight+Jr+2013+DVD-R+%28RLG%29","amp;tr":["udp%3A%2F%2Ftracker.openbittorrent.com%3A80","udp%3A%2F%2Fopen.demonii.com%3A1337","udp%3A%2F%2Ftracker.coppersurfer.tk%3A6969","udp%3A%2F%2Fexodus.desync.com%3A6969"],"infoHash":"6a84c67aecf01e3fb964bf4385b976cf69f3ee6b","infoHashBuffer":{"type":"Buffer","data":[106,132,198,122,236,240,30,63,185,100,191,67,133,185,118,207,105,243,238,107]},"announce":[],"urlList":[]}}